HIERARCHY
ROOT root
{
	OFFSET	0	13.1	24.9
	CHANNELS 6  Xposition Yposition Zposition Xrotation Yrotation Zrotation
	JOINT spine_1
	{
		OFFSET	0	9.99999	0
		CHANNELS 3  Xrotation Yrotation Zrotation
		JOINT spine_2
		{
			OFFSET	0	112	-10
			CHANNELS 3  Xrotation Yrotation Zrotation
			JOINT spine_3
			{
				OFFSET	0	206.5	19.3
				CHANNELS 3  Xrotation Yrotation Zrotation
				JOINT spine_4
				{
					OFFSET	0	110.4	14.6
					CHANNELS 3  Xrotation Yrotation Zrotation
					JOINT neck_1
					{
						OFFSET	0	71.8	-50.3
						CHANNELS 3  Xrotation Yrotation Zrotation
						JOINT neck_2
						{
							OFFSET	0	86.2	-25.8
							CHANNELS 3  Xrotation Yrotation Zrotation
							JOINT head_ee
							{
								OFFSET	0	179.8	-8.7
								CHANNELS 3  Xrotation Yrotation Zrotation
								End Site
								{
									OFFSET	1	0	0
								}
							}
						}
					}
					JOINT left_clavicle
					{
						OFFSET	-43.2	22.4	-70.8
						CHANNELS 3  Xrotation Yrotation Zrotation
						JOINT left_shoulder
						{
							OFFSET	-93.9	-5.79999	48.7
							CHANNELS 3  Xrotation Yrotation Zrotation
							JOINT left_elbow
							{
								OFFSET	-291.4	-30.8	15.2
								CHANNELS 3  Xrotation Yrotation Zrotation
								JOINT left_lowarm_twist
								{
									OFFSET	-110.7	-3.89999	13.6
									CHANNELS 3  Xrotation Yrotation Zrotation
									JOINT left_hand
									{
										OFFSET	-110.7	-3.89999	13.6
										CHANNELS 3  Xrotation Yrotation Zrotation
										JOINT left_ee
										{
											OFFSET	-80.8	-5.10001	12.1
											CHANNELS 3  Xrotation Yrotation Zrotation
											End Site
											{
												OFFSET	1	0	0
											}
										}
									}
								}
							}
						}
					}
					JOINT right_clavicle
					{
						OFFSET	43.2	22.4	-70.8
						CHANNELS 3  Xrotation Yrotation Zrotation
						JOINT right_shoulder
						{
							OFFSET	93.9	-5.79999	48.7
							CHANNELS 3  Xrotation Yrotation Zrotation
							JOINT right_elbow
							{
								OFFSET	291.4	-30.8	15.2
								CHANNELS 3  Xrotation Yrotation Zrotation
								JOINT right_lowarm_twist
								{
									OFFSET	110.7	-3.89999	13.6
									CHANNELS 3  Xrotation Yrotation Zrotation
									JOINT right_hand
									{
										OFFSET	110.7	-3.89999	13.6
										CHANNELS 3  Xrotation Yrotation Zrotation
										JOINT right_ee
										{
											OFFSET	80.8	-5.10001	12.1
											CHANNELS 3  Xrotation Yrotation Zrotation
											End Site
											{
												OFFSET	1	0	0
											}
										}
									}
								}
							}
						}
					}
				}
			}
		}
	}
	JOINT left_hip
	{
		OFFSET	-82.8	-127.5	0.300001
		CHANNELS 3  Xrotation Yrotation Zrotation
		JOINT left_knee
		{
			OFFSET	-28.2	-396.7	2.2
			CHANNELS 3  Xrotation Yrotation Zrotation
			JOINT left_ankle
			{
				OFFSET	-11.7	-411.3	35.4
				CHANNELS 3  Xrotation Yrotation Zrotation
				JOINT left_toes
				{
					OFFSET	0	-60	-88.6
					CHANNELS 3  Xrotation Yrotation Zrotation
					JOINT left_foot_ee
					{
						OFFSET	-22.5	-16.5	-42.2
						CHANNELS 3  Xrotation Yrotation Zrotation
						End Site
						{
							OFFSET	1	0	0
						}
					}
				}
			}
		}
	}
	JOINT right_hip
	{
		OFFSET	82.8	-127.5	0.300001
		CHANNELS 3  Xrotation Yrotation Zrotation
		JOINT right_knee
		{
			OFFSET	28.2	-396.7	2.2
			CHANNELS 3  Xrotation Yrotation Zrotation
			JOINT right_ankle
			{
				OFFSET	11.7	-411.3	35.4
				CHANNELS 3  Xrotation Yrotation Zrotation
				JOINT right_toes
				{
					OFFSET	0	-60	-88.6
					CHANNELS 3  Xrotation Yrotation Zrotation
					JOINT right_foot_ee
					{
						OFFSET	22.5	-16.5	-42.2
						CHANNELS 3  Xrotation Yrotation Zrotation
						End Site
						{
							OFFSET	1	0	0
						}
					}
				}
			}
		}
	}
}
MOTION
Frames: 15
Frame Time: 0.02
1732.79 725.292 -561.764 83.5795 -81.4699 86.0471 -2.53076 -0.433923 -1.21397 -2.53001 -0.355801 -1.23912 -2.52111 -0.0307943 -1.28881 -2.52335 -0.233935 -1.26778 -3.61203 1.76915 -0.956913 -3.60224 3.96417 -0.717764 -0.0 0.0 -0.0 -0.48325 8.43706 0.150544 -0.304939 -26.6052 81.4271 0.180622 -5.11304 0.00806468 -7.10332 -0.303761 0.855181 -0.509796 27.4692 7.97593 -0.0 0.0 -0.0 2.2094 2.63919 -4.03946 3.5399 19.7285 -66.5138 3.30993 58.608 -1.85811 -2.91771 0.111897 -0.355714 0.502638 -18.8328 -10.6902 0.0 0.0 0.0 15.7451 10.8059 -10.5531 -37.4246 -0.311105 5.63435 30.0708 14.274 -3.93508 -15.9487 0.0 0.0 -0.0 0.0 -0.0 -1.88544 12.0985 -6.95791 3.80165 0.175117 0.556911 22.6578 11.444 3.21712 -22.9368 0.0 0.0 0.0 0.0 0.0 
1735.22 727.818 -560.675 82.5696 -81.8411 85.09 -2.66321 -0.479382 -1.24178 -2.66244 -0.3994 -1.26976 -2.65227 -0.0621917 -1.32963 -2.65463 -0.271384 -1.30313 -3.02626 1.28123 -1.75624 -3.00895 3.6966 -1.64065 -0.0 0.0 -0.0 -0.32515 7.97802 0.371392 -0.817501 -25.4976 81.3557 0.182242 -5.15867 0.00820968 -7.16233 -0.306726 0.862121 -0.703463 28.6313 7.3662 -0.0 0.0 -0.0 2.06594 1.21022 -3.87852 4.3525 19.9021 -66.5167 3.50337 60.0341 -2.02448 -2.85853 0.109448 -0.348557 0.578037 -16.9887 -10.4901 0.0 0.0 0.0 14.1178 11.8259 -10.2168 -31.9742 -0.0365985 4.84364 29.9213 14.7232 -3.92327 -15.7547 0.0 0.0 -0.0 0.0 -0.0 -1.25051 12.524 -7.19349 3.66726 0.168297 0.537425 23.3028 12.3818 3.31522 -22.5169 0.0 0.0 0.0 0.0 0.0 
1737.9 728.86 -561.554 82.7531 -81.7007 85.352 -2.97215 -0.463486 -1.28445 -2.97131 -0.380821 -1.31133 -2.96112 -0.0262552 -1.36525 -2.96364 -0.241521 -1.34397 -2.98456 2.03829 0.416835 -2.97996 3.37829 0.728825 -0.0 0.0 -0.0 -0.268722 7.09071 0.361345 -1.29389 -24.2526 82.1572 0.17882 -5.0623 0.00790479 -7.09599 -0.303394 0.854319 -0.0255463 29.318 11.3143 -0.0 0.0 -0.0 1.88239 -0.465402 -3.6661 5.90707 20.2579 -67.0956 3.79826 61.9936 -2.28247 -2.79286 0.106739 -0.340611 0.621119 -15.3666 -10.1676 0.0 0.0 0.0 12.3296 13.1771 -9.60221 -28.2082 0.108514 4.28402 30.8715 15.8774 -4.03952 -15.8767 0.0 0.0 -0.0 0.0 -0.0 -0.624805 12.4732 -7.1907 1.47026 0.0633306 0.21672 22.6423 11.7336 3.2206 -21.6742 0.0 0.0 0.0 0.0 0.0 
1744.73 729.139 -562.919 83.2168 -81.9622 86.0599 -3.03206 -0.406975 -1.40929 -3.03101 -0.316483 -1.43232 -3.0214 0.0689328 -1.46524 -3.02436 -0.163315 -1.45774 -2.18919 2.31133 1.74561 -2.1794 2.79876 2.14145 -0.0 0.0 -0.0 -0.155869 6.21888 0.457263 -1.95196 -23.9036 82.5841 0.188925 -5.34675 0.00882143 -6.80246 -0.288755 0.819753 0.524423 29.1939 14.3054 -0.0 0.0 -0.0 1.71935 -1.3007 -3.42691 6.61949 20.5329 -67.5205 3.82235 62.1433 -2.30375 -2.59645 0.0986897 -0.316828 0.631209 -14.5057 -9.91401 0.0 0.0 0.0 11.1354 14.074 -8.98868 -25.1608 0.198799 3.82511 30.3033 17.4726 -3.99838 -15.2416 0.0 0.0 -0.0 0.0 -0.0 -0.209348 12.3233 -7.49452 0.044892 0.001851 0.0066404 24.4922 11.01 3.43371 -20.6563 0.0 0.0 0.0 0.0 0.0 
1747.94 728.182 -563.194 84.7338 -82.1861 87.6957 -3.078 -0.286376 -1.47219 -3.07681 -0.192127 -1.48743 -3.07012 0.204678 -1.48575 -3.0732 -0.0325102 -1.49943 -1.38038 2.58195 2.46245 -1.36333 2.6707 2.92555 -0.0 0.0 -0.0 0.0510277 5.04695 0.693602 -2.58046 -23.4842 82.7032 0.186686 -5.28376 0.00861416 -7.0313 -0.300152 0.846707 0.824291 29.3455 16.0265 -0.0 0.0 -0.0 1.53923 -2.20907 -3.16632 5.98177 21.3917 -67.2453 3.92056 62.7386 -2.39082 -2.69579 0.10275 -0.328861 0.649187 -13.837 -9.78006 0.0 0.0 0.0 10.5323 14.5228 -8.91942 -23.5342 0.23696 3.57841 30.7767 18.1083 -4.05952 -15.0336 0.0 0.0 -0.0 0.0 -0.0 0.0397558 12.321 -7.57231 -0.707886 -0.0284999 -0.104894 24.9519 10.2501 3.47466 -20.5716 0.0 0.0 0.0 0.0 0.0 
1754.63 730.566 -564.174 82.952 -82.3678 86.0848 -3.08781 -0.391546 -1.55645 -3.08651 -0.291724 -1.5782 -3.07645 0.132519 -1.59945 -3.08 -0.121714 -1.60031 -1.37303 2.17858 2.61336 -1.35502 1.82364 3.03569 -0.0 0.0 -0.0 0.282275 3.81568 0.977919 -2.9387 -23.0713 82.5848 0.193849 -5.48527 0.00928631 -6.80791 -0.289025 0.820395 1.48516 29.5572 19.8379 -0.0 0.0 -0.0 1.40259 -3.09745 -2.9905 5.81973 20.9607 -67.2403 3.81718 62.1113 -2.29918 -2.36521 0.0893179 -0.288794 0.776764 -11.3385 -9.66327 0.0 0.0 0.0 9.24665 14.7459 -8.83677 -22.1273 0.264302 3.36426 31.3557 18.4146 -4.12734 -14.5176 0.0 0.0 -0.0 0.0 -0.0 0.585639 11.8668 -7.90046 -1.9519 -0.0754329 -0.290037 24.326 10.1518 3.39781 -20.0073 0.0 0.0 0.0 0.0 0.0 
1761.7 729.501 -566.675 80.8751 -82.6049 84.0744 -3.01034 -0.51137 -1.5879 -3.00903 -0.409305 -1.61721 -2.99528 0.0268787 -1.66797 -2.99908 -0.236847 -1.65129 -1.16888 2.74707 4.13583 -1.12415 1.60678 4.72043 -0.0 0.0 -0.0 0.265366 3.48781 0.909305 -2.82183 -22.4386 83.0159 0.188942 -5.34723 0.00882313 -6.70845 -0.284105 0.808667 1.62646 29.7229 20.6938 -0.0 0.0 -0.0 1.23871 -4.42471 -2.80948 5.16372 22.1653 -67.2157 3.78294 61.8976 -2.26895 -2.63139 0.100115 -0.321061 0.736111 -12.6118 -9.87867 0.0 0.0 0.0 8.55045 15.232 -8.5194 -20.6147 0.287825 3.13335 32.7843 18.7426 -4.28602 -14.6606 0.0 0.0 -0.0 0.0 -0.0 0.510483 12.0528 -7.90017 -2.3332 -0.0890113 -0.346981 25.0563 10.3092 3.4882 -19.5436 0.0 0.0 0.0 0.0 0.0 
1772.21 732.507 -570.049 80.595 -82.7618 83.8526 -3.03745 -0.513915 -1.618 -3.03609 -0.40993 -1.64741 -3.02201 0.0349503 -1.69728 -3.02595 -0.233503 -1.6815 -0.55973 2.71622 3.67407 -0.524732 1.87493 4.23264 -0.0 0.0 -0.0 0.541625 3.55437 1.43087 -3.2375 -22.6388 82.7418 0.195292 -5.52586 0.0094247 -6.18531 -0.258558 0.746839 1.92714 29.6296 22.4267 -0.0 0.0 -0.0 0.863596 -6.59082 -2.33611 3.9977 22.1033 -67.4486 3.9808 63.0922 -2.44446 -2.97997 0.114482 -0.363241 0.720188 -12.1164 -9.59115 0.0 0.0 0.0 7.73514 15.4182 -8.55489 -20.148 0.29385 3.062 32.3532 18.5274 -4.23654 -14.7722 0.0 0.0 -0.0 0.0 -0.0 0.0791305 12.07 -7.68797 -2.95571 -0.110362 -0.44013 25.524 9.62189 3.53115 -19.3373 0.0 0.0 0.0 0.0 0.0 
1781.51 731.01 -572.158 80.8511 -82.7614 84.3647 -2.97596 -0.494773 -1.74533 -2.97435 -0.382728 -1.77327 -2.95994 0.0921629 -1.81175 -2.96447 -0.195078 -1.80357 0.707401 1.84796 2.96048 0.730045 0.826476 3.3905 -0.0 0.0 -0.0 0.589187 2.75065 1.433 -3.24372 -22.5326 82.4809 0.193349 -5.47121 0.00923853 -5.80682 -0.240429 0.701966 2.64048 29.8658 26.7575 -0.0 0.0 -0.0 -0.0582624 -8.41291 -0.895443 6.21857 24.004 -69.5362 3.19979 57.7402 -1.76452 -3.07062 0.11826 -0.374197 0.7228 -11.9396 -9.54157 0.0 0.0 0.0 6.75747 16.4801 -8.608 -19.4514 0.301763 2.9554 34.4827 18.0827 -4.45187 -15.0484 0.0 0.0 -0.0 0.0 -0.0 -0.109737 11.8031 -7.73974 -3.68035 -0.133939 -0.548842 26.7 7.90315 3.63876 -20.1088 0.0 0.0 0.0 0.0 0.0 
1794.78 731.564 -575.627 80.4053 -82.8582 83.8479 -2.91433 -0.518879 -1.7092 -2.9128 -0.409084 -1.73874 -2.89792 0.0557774 -1.78533 -2.90229 -0.226837 -1.77174 1.57315 1.22265 2.51382 1.59021 0.048373 2.86094 -0.0 0.0 -0.0 0.843036 2.13914 1.8462 -3.16723 -22.4383 82.1532 0.196388 -5.55666 0.00953048 -5.53409 -0.227549 0.669558 3.12495 30.0259 29.8087 -0.0 0.0 -0.0 -0.825829 -10.285 0.200735 6.77429 25.2285 -71.0399 2.76432 53.8508 -1.40416 -3.12903 0.120704 -0.381252 0.7185 -11.8285 -9.4721 0.0 0.0 0.0 5.85086 17.0023 -8.7252 -18.9454 0.306697 2.87793 36.0268 17.6036 -4.59936 -15.234 0.0 0.0 -0.0 0.0 -0.0 -0.479954 11.6253 -7.63485 -4.4695 -0.158047 -0.667553 27.4731 6.62466 3.70693 -20.6821 0.0 0.0 0.0 0.0 0.0 
1801.51 732.386 -578.939 80.3228 -83.0696 83.7912 -2.70189 -0.515246 -1.72062 -2.70034 -0.404731 -1.7499 -2.68559 0.0562241 -1.7952 -2.69001 -0.227955 -1.78156 2.26024 0.70102 2.13813 2.27398 -0.578888 2.41777 -0.0 0.0 -0.0 1.17111 1.63535 2.41635 -2.90136 -22.4137 81.7401 0.205233 -5.80526 0.0104061 -5.29907 -0.216575 0.641582 3.45179 30.153 31.932 -0.0 0.0 -0.0 -1.40697 -11.4766 1.02146 6.5522 25.849 -71.8226 2.4186 50.1423 -1.1316 -3.17631 0.122687 -0.386962 0.707399 -11.8221 -9.39831 0.0 0.0 0.0 5.13108 17.3059 -8.73457 -18.6726 0.309073 2.83613 37.0367 16.8522 -4.68563 -15.3213 0.0 0.0 -0.0 0.0 -0.0 -0.488818 11.4774 -7.45934 -4.9387 -0.171603 -0.738284 27.9618 5.63361 3.74759 -21.1471 0.0 0.0 0.0 0.0 0.0 
1810.39 733.059 -578.625 81.5722 -83.2375 85.1153 -2.51096 -0.435675 -1.75826 -2.50929 -0.322928 -1.7824 -2.49696 0.137714 -1.80617 -2.50148 -0.149218 -1.80526 1.37843 0.289536 2.23329 1.39594 -1.35432 2.46735 -0.0 0.0 -0.0 1.63137 1.25326 3.25523 -3.13209 -22.6192 80.5279 0.21169 -5.9866 0.0110695 -5.49063 -0.225512 0.664388 3.52355 30.4608 32.4358 -0.0 0.0 -0.0 -1.81709 -13.1131 1.4533 6.38596 26.4141 -72.7508 2.23989 47.9668 -0.996587 -3.38213 0.131376 -0.411798 0.65815 -11.2432 -8.86214 0.0 0.0 0.0 4.68523 17.7378 -8.83492 -18.4748 0.310671 2.80583 37.632 15.5397 -4.72209 -15.442 0.0 0.0 -0.0 0.0 -0.0 -0.66386 11.7799 -7.66982 -5.38966 -0.184087 -0.806365 28.386 5.22138 3.78914 -21.9165 0.0 0.0 0.0 0.0 0.0 
1816.09 732.929 -580.779 79.3825 -83.3245 82.8366 -2.35368 -0.563716 -1.70916 -2.35217 -0.453832 -1.74155 -2.33613 -0.00438486 -1.79969 -2.34053 -0.288512 -1.77643 2.07783 -0.0795889 1.888 2.09299 -1.73151 2.07484 -0.0 0.0 -0.0 1.72387 0.577398 3.37192 -2.38069 -22.5501 80.3447 0.22799 -6.44382 0.0128341 -5.15066 -0.209705 0.623894 3.75676 30.432 33.9805 -0.0 0.0 -0.0 -2.37457 -14.7797 2.08424 6.08194 26.728 -72.9237 2.18538 47.2644 -0.956325 -3.22982 0.124937 -0.393422 0.718251 -11.48 -9.33915 0.0 0.0 0.0 4.33703 18.0473 -8.95162 -18.3377 0.311718 2.78483 38.3787 16.1608 -4.80211 -15.5658 0.0 0.0 -0.0 0.0 -0.0 -0.915063 11.1451 -7.44649 -5.91567 -0.19797 -0.885896 28.9234 4.4104 3.83778 -21.6178 0.0 0.0 0.0 0.0 0.0 
1823.36 734.966 -583.107 79.4374 -83.2721 82.8976 -2.40829 -0.562793 -1.71257 -2.40677 -0.452694 -1.7449 -2.39071 -0.000728556 -1.80265 -2.39513 -0.285368 -1.77992 1.63183 -0.504304 2.14514 1.65528 -2.6855 2.30885 -0.0 0.0 -0.0 1.9185 0.321047 3.72309 -1.43838 -23.1227 79.5703 0.275 -7.75765 0.0186455 -5.68052 -0.234445 0.686965 3.49436 30.2699 32.2238 -0.0 0.0 -0.0 -2.93663 -14.6612 3.01685 4.84212 27.466 -73.7596 2.09704 46.0849 -0.892055 -3.12944 0.120721 -0.381302 0.769137 -10.4072 -9.26193 0.0 0.0 0.0 3.90737 19.3415 -8.28961 -17.7689 0.315523 2.69762 38.217 16.0064 -4.78447 -15.5145 0.0 0.0 -0.0 0.0 -0.0 -1.01075 11.0192 -7.36589 -6.75984 -0.21872 -1.01378 29.0664 3.30813 3.84031 -21.7888 0.0 0.0 0.0 0.0 0.0 
1830.89 735.514 -585.733 78.7766 -83.5122 82.05 -2.35925 -0.582545 -1.61962 -2.35791 -0.478319 -1.65339 -2.34204 -0.0499544 -1.72045 -2.34603 -0.321001 -1.69098 0.861774 -0.8534 2.24018 0.890156 -3.36791 2.35304 -0.0 0.0 -0.0 2.16203 -0.296838 4.14079 -0.70155 -23.5555 78.9735 0.311573 -8.77423 0.0239038 -5.61601 -0.231402 0.679299 3.41739 30.0793 31.6988 -0.0 0.0 -0.0 -3.42635 -15.43 3.65644 4.14319 27.273 -74.1331 1.96903 44.2816 -0.801238 -3.21259 0.124212 -0.391342 0.79696 -9.66976 -9.16209 0.0 0.0 0.0 3.79201 20.2688 -8.47284 -17.9453 0.314436 2.72467 38.0621 15.8935 -4.76813 -15.61 0.0 0.0 -0.0 0.0 -0.0 -1.17173 11.0771 -6.95452 -7.47871 -0.234903 -1.12291 29.2622 2.63111 3.85427 -21.9095 0.0 0.0 0.0 0.0 0.0 
